<svg width="118" height="113" viewBox="0 0 118 113" fill="none" xmlns="http://www.w3.org/2000/svg">
<path fill-rule="evenodd" clip-rule="evenodd" d="M101.653 49.496C96.6161 44.3532 88.3474 44.2312 83.1597 49.2232L51.7679 79.5295C51.1149 80.1599 50.2672 80.5576 49.3596 80.5506C47.8319 80.5388 45.4347 80.3221 44.167 79.1835C42.922 78.0653 42.4607 75.7832 42.2898 74.219C42.1758 73.1753 42.6041 72.1674 43.3442 71.4227L74.3795 40.1917C84.5677 30.3877 100.807 30.6273 110.698 40.7274C120.412 50.6461 120.437 66.4517 110.755 76.4007L77.533 111.067C76.8481 111.781 75.9214 112.226 74.932 112.195C73.4196 112.148 71.1565 111.891 69.8767 110.857C68.5741 109.805 67.8832 107.618 67.5402 106.05C67.2933 104.921 67.6943 103.776 68.4862 102.934L101.681 67.6604C106.612 62.5945 106.599 54.5465 101.653 49.496Z" fill="#EF961F"/>
<path d="M80.4271 21.1158C80.4271 32.7777 70.9825 42.2316 59.332 42.2316C47.6814 42.2316 38.2368 32.7777 38.2368 21.1158C38.2368 9.45387 47.6814 0 59.332 0C70.9825 0 80.4271 9.45387 80.4271 21.1158ZM50.0847 21.1158C50.0847 26.2279 54.2249 30.3721 59.332 30.3721C64.4391 30.3721 68.5792 26.2279 68.5792 21.1158C68.5792 16.0037 64.4391 11.8595 59.332 11.8595C54.2249 11.8595 50.0847 16.0037 50.0847 21.1158Z" fill="#6ABBDA"/>
<path fill-rule="evenodd" clip-rule="evenodd" d="M32.5636 47.8747C27.7752 43.7727 20.6575 43.8818 15.9791 48.137C10.7534 52.89 10.4706 61.0274 15.3415 66.112L44.2285 96.2666L87.9196 53.7309C88.0181 53.635 88.132 53.5561 88.2565 53.4976L88.992 53.1521C94.5406 50.5456 99.9415 56.9991 96.4053 62.0103C96.363 62.0704 96.3152 62.1263 96.2626 62.1776L46.7906 110.341C45.2168 111.873 42.6974 111.83 41.1779 110.243L6.77679 74.3327C-2.73221 64.4065 -2.15182 48.5792 7.99924 39.3464C17.0893 31.0785 30.9331 30.8445 40.279 38.8505L47.9394 45.4128C53.0103 50.4632 46.2159 58.3483 40.2241 54.4369L32.5636 47.8747Z" fill="#C1D7E3"/>
</svg>
